<svg xmlns="http://www.w3.org/2000/svg" xmlns:xlink="http://www.w3.org/1999/xlink" xmlns:lucid="lucid" width="1166.67" height="233.07"><g transform="translate(1166.6666666666667 0)" lucid:page-tab-id="0_0"><path d="M-1166.67 0H0v233.07h-1166.67z" fill="#fff"/><path d="M-720.54 163.18h80v47.04h-80z" fill="none"/><use xlink:href="#a" transform="matrix(1,0,0,1,-720.5448136899391,163.18245625896304) translate(0 19.1171875)"/><use xlink:href="#b" transform="matrix(1,0,0,1,-720.5448136899391,163.18245625896304) translate(0 42.5546875)"/><path d="M-575.05 32.47a3 3 0 0 1 3-3H-302a3 3 0 0 1 3 3v174.75a3 3 0 0 1-3 3h-270.05a3 3 0 0 1-3-3z" stroke="#000" stroke-opacity="0" fill="#e3e3e3"/><use xlink:href="#c" transform="matrix(1,0,0,1,-570.0545336449484,34.46801990626139) translate(0 24.73958333333333)"/><use xlink:href="#d" transform="matrix(1,0,0,1,-570.0545336449484,34.46801990626139) translate(75.37760416666664 24.73958333333333)"/><use xlink:href="#e" transform="matrix(1,0,0,1,-570.0545336449484,34.46801990626139) translate(127.81249999999997 24.73958333333333)"/><path d="M-731.8 121.8h118.2a.03.03 0 0 0 .03-.04.03.03 0 0 1 .03-.03h99.1M-731.77 121.8h-4.54" stroke="#121215" stroke-width="3" fill="none"/><path d="M-498.68 121.73l-14.27 4.64v-9.27z" stroke="#121215" stroke-width="3" fill="#121215"/><path d="M-859 101.28a3 3 0 0 1 3-3h119.7a3 3 0 0 1 3 3v41.03a3 3 0 0 1-3 3H-856a3 3 0 0 1-3-3z" fill="#538ff7"/><use xlink:href="#f" transform="matrix(1,0,0,1,-854,103.27532791007864) translate(24.074218750000007 27.11458333333333)"/><path d="M-724.92 44h132.75v95.6h-132.75z" fill="#fff" fill-opacity="0"/><use xlink:href="#g" transform="matrix(1,0,0,1,-719.9157956633173,48.99999999999999) translate(0 37.367187499999986)"/><use xlink:href="#h" transform="matrix(1,0,0,1,-719.9157956633173,48.99999999999999) translate(44.20898437499998 37.367187499999986)"/><use xlink:href="#i" transform="matrix(1,0,0,1,-719.9157956633173,48.99999999999999) translate(0 60.80468749999997)"/><use xlink:href="#j" transform="matrix(1,0,0,1,-719.9157956633173,48.99999999999999) translate(38.144531249999986 60.80468749999997)"/><path d="M-725.17 91.8h-33.75a6 6 0 0 1-6-6V10a6 6 0 0 1 6-6h94.38a6 6 0 0 1 6 6v33.55" stroke="#000" stroke-opacity="0" stroke-width=".5" fill="none"/><path d="M-668.72 26.3l10.18 17.2 10.18-17.2" stroke="#000" stroke-opacity="0" stroke-width=".5" fill="none"/><path d="M-581.53 129.2l-2.3 2.05m-3.06 2.74l-4.6 4.1m-3.06 2.73l-4.6 4.1m-3.07 2.75l-4.6 4.1m-3.07 2.75l-4.6 4.1m-3.06 2.74l-4.6 4.1m-3.07 2.75l-4.6 4.1m-3.07 2.75l-4.6 4.1m-3.07 2.74l-2.3 2.07" stroke="#1a73e8" stroke-width="2" fill="none"/><path d="M-580.14 129.3l-.74.66-1.33-1.5.78-.7z" stroke="#1a73e8" stroke-width=".05" fill="#1a73e8"/><path d="M-642.85 183.95l-.77.68" stroke="#1a73e8" stroke-width="2" fill="none"/><path d="M-565.73 121.54c0 5.27-3.87 9.54-8.64 9.54-4.76 0-8.63-4.27-8.63-9.54s3.87-9.54 8.63-9.54c4.77 0 8.64 4.27 8.64 9.54z" stroke="#3a414a" fill="#121215"/><path d="M-473.15 108a3 3 0 0 1 3-3h144.77a3 3 0 0 1 3 3v82.05a3 3 0 0 1-3 3h-144.77a3 3 0 0 1-3-3z" stroke="#538ff7" stroke-width="2" fill="#a3a3a3"/><path d="M-482.85 97.18a3 3 0 0 1 3-3h144.77a3 3 0 0 1 3 3v82.05a3 3 0 0 1-3 3h-144.77a3 3 0 0 1-3-3z" stroke="#538ff7" stroke-width="2" fill="#a3a3a3"/><path d="M-492.85 85.4a3 3 0 0 1 3-3h144.77a3 3 0 0 1 3 3v82.06a3 3 0 0 1-3 3h-144.77a3 3 0 0 1-3-3z" stroke="#538ff7" stroke-width="2" fill="#a3a3a3"/><g><use xlink:href="#k" transform="matrix(1,0,0,1,-487.8461538461538,87.40592207668257) translate(13.084635416666671 32.14583333333333)"/><use xlink:href="#l" transform="matrix(1,0,0,1,-487.8461538461538,87.40592207668257) translate(20.024739583333343 63.39583333333332)"/></g><defs><path fill="#3a414a" d="M1288 0h-193v-673H361V0H169v-1456h192v626h734v-626h193V0" id="m"/><path fill="#3a414a" d="M1175-1298H707V0H516v-1298H49v-158h1126v158" id="n"/><path fill="#3a414a" d="M1216-1011c-1 297-202 441-512 441H361V0H169v-1456h537c297-6 510 164 510 445zm-192 2c1-178-126-288-307-289H361v571h345c196 1 318-92 318-282" id="o"/><path fill="#3a414a" d="M631-137c179 0 314-70 314-231 0-71-25-127-75-166s-141-77-272-115c-165-47-285-106-360-175s-112-154-112-255c0-245 231-397 495-397 206 0 369 89 449 218 43 68 65 142 65 223H942c0-184-129-283-321-283-172 0-299 76-301 236 0 59 26 109 76 150s135 78 256 113c205 59 345 116 436 256 35 53 50 119 50 193-2 256-231 398-507 390C333 12 90-129 80-422h193c0 187 160 285 358 285" id="p"/><g id="a"><use transform="matrix(0.009765624999999998,0,0,0.009765624999999998,0,0)" xlink:href="#m"/><use transform="matrix(0.009765624999999998,0,0,0.009765624999999998,13.974609374999998,0)" xlink:href="#n"/><use transform="matrix(0.009765624999999998,0,0,0.009765624999999998,26.064453124999996,0)" xlink:href="#n"/><use transform="matrix(0.009765624999999998,0,0,0.009765624999999998,37.99804687499999,0)" xlink:href="#o"/><use transform="matrix(0.009765624999999998,0,0,0.009765624999999998,50.61523437499999,0)" xlink:href="#p"/></g><path fill="#3a414a" d="M599-131c141 0 220-65 285-146l113 88C906-50 770 20 589 20 281 21 93-214 93-545c0-223 93-397 233-485 74-48 154-72 240-72 300 2 449 218 445 537v77H278c0 197 129 357 321 357zm227-509c-3-180-88-310-260-310-170 0-264 140-282 310h542" id="q"/><path fill="#3a414a" d="M589-945c-131 0-219 81-264 174V0H140v-1082h175l6 136c83-104 191-156 324-156 229 0 346 129 346 387V0H806v-716c-2-153-65-229-217-229" id="r"/><path fill="#3a414a" d="M520 20C244 20 95-247 95-550c0-298 151-550 427-552 127 0 227 43 301 130v-564h185V0H838l-9-116C755-25 652 20 520 20zm48-965c-210 0-288 177-288 416 0 218 87 392 286 392 117 0 203-53 257-158v-497c-55-102-140-153-255-153" id="s"/><path fill="#3a414a" d="M632-1102c291 0 422 251 422 573 0 297-141 548-419 549-131 0-235-42-310-125v521H140v-1498h169l9 120c75-93 180-140 314-140zm-53 971c207 0 290-180 290-419 0-218-92-395-292-395-112 0-196 50-252 149v517c55 99 140 148 254 148" id="t"/><path fill="#3a414a" d="M584 20C278 26 81-227 91-551c10-320 175-545 491-551 308-5 503 247 494 573-9 322-175 543-492 549zm-2-970c-208 0-305 185-305 421 0 216 106 398 307 398 211 0 307-186 307-420 0-214-109-399-309-399" id="u"/><path fill="#3a414a" d="M341 0H156v-1082h185V0zm-91-1264c-68 0-108-42-109-105 0-62 41-107 109-107s110 44 110 107-42 105-110 105" id="v"/><path fill="#3a414a" d="M456 20C285 20 205-92 206-268v-671H9v-143h197v-262h185v262h202v143H391v671c-9 125 92 149 207 118V0c-49 13-96 20-142 20" id="w"/><g id="b"><use transform="matrix(0.009765624999999998,0,0,0.009765624999999998,0,0)" xlink:href="#q"/><use transform="matrix(0.009765624999999998,0,0,0.009765624999999998,10.595703124999998,0)" xlink:href="#r"/><use transform="matrix(0.009765624999999998,0,0,0.009765624999999998,21.630859374999996,0)" xlink:href="#s"/><use transform="matrix(0.009765624999999998,0,0,0.009765624999999998,32.91015624999999,0)" xlink:href="#t"/><use transform="matrix(0.009765624999999998,0,0,0.009765624999999998,44.13085937499999,0)" xlink:href="#u"/><use transform="matrix(0.009765624999999998,0,0,0.009765624999999998,55.53710937499999,0)" xlink:href="#v"/><use transform="matrix(0.009765624999999998,0,0,0.009765624999999998,60.390624999999986,0)" xlink:href="#r"/><use transform="matrix(0.009765624999999998,0,0,0.009765624999999998,71.42578124999999,0)" xlink:href="#w"/></g><path fill="#121215" d="M688-137c238 0 323-102 359-325h193c-32 297-228 482-552 482-361 0-569-299-569-680 0-197 8-360 73-497 88-186 257-317 513-319 316-2 509 195 535 488h-193c-31-212-118-330-342-330-272 0-397 224-393 523v141c-3 282 115 517 376 517" id="x"/><path fill="#121215" d="M341 0H156v-1536h185V0" id="y"/><path fill="#121215" d="M584 20C278 26 81-227 91-551c10-320 175-545 491-551 308-5 503 247 494 573-9 322-175 543-492 549zm-2-970c-208 0-305 185-305 421 0 216 106 398 307 398 211 0 307-186 307-420 0-214-109-399-309-399" id="z"/><path fill="#121215" d="M491 20c-241-1-355-148-355-398v-704h185v699c0 164 67 246 200 246 141 0 235-53 282-158v-787h185V0H812l-4-107C736-22 630 20 491 20" id="A"/><path fill="#121215" d="M520 20C244 20 95-247 95-550c0-298 151-550 427-552 127 0 227 43 301 130v-564h185V0H838l-9-116C755-25 652 20 520 20zm48-965c-210 0-288 177-288 416 0 218 87 392 286 392 117 0 203-53 257-158v-497c-55-102-140-153-255-153" id="B"/><g id="c"><use transform="matrix(0.01302083333333333,0,0,0.01302083333333333,0,0)" xlink:href="#x"/><use transform="matrix(0.01302083333333333,0,0,0.01302083333333333,17.35677083333333,0)" xlink:href="#y"/><use transform="matrix(0.01302083333333333,0,0,0.01302083333333333,23.828124999999993,0)" xlink:href="#z"/><use transform="matrix(0.01302083333333333,0,0,0.01302083333333333,39.03645833333332,0)" xlink:href="#A"/><use transform="matrix(0.01302083333333333,0,0,0.01302083333333333,53.73697916666666,0)" xlink:href="#B"/></g><path fill="#121215" d="M1161-1018c0 201-122 330-278 388l342 618V0h-206L703-589H361V0H168v-1456h482c310-2 511 139 511 438zm-193 0c0-187-120-280-313-280H361v552h295c179 3 313-101 312-272" id="C"/><path fill="#121215" d="M589-945c-131 0-219 81-264 174V0H140v-1082h175l6 136c83-104 191-156 324-156 229 0 346 129 346 387V0H806v-716c-2-153-65-229-217-229" id="D"/><g id="d"><use transform="matrix(0.01302083333333333,0,0,0.01302083333333333,0,0)" xlink:href="#C"/><use transform="matrix(0.01302083333333333,0,0,0.01302083333333333,16.41927083333333,0)" xlink:href="#A"/><use transform="matrix(0.01302083333333333,0,0,0.01302083333333333,31.11979166666666,0)" xlink:href="#D"/></g><path fill="#121215" d="M538-131c121 0 232-49 232-156 0-50-20-88-56-117-73-60-334-92-420-143-92-55-162-110-162-238 0-190 192-317 400-317 223 0 414 129 413 338H759c0-108-110-186-227-186-119 0-215 53-215 159 0 45 18 78 53 101 76 52 331 90 416 139 98 57 169 115 169 251C955-92 760 20 538 20c-176 0-314-68-386-174-38-55-57-115-57-179h185c6 129 116 202 258 202" id="E"/><path fill="#121215" d="M599-131c141 0 220-65 285-146l113 88C906-50 770 20 589 20 281 21 93-214 93-545c0-223 93-397 233-485 74-48 154-72 240-72 300 2 449 218 445 537v77H278c0 197 129 357 321 357zm227-509c-3-180-88-310-260-310-170 0-264 140-282 310h542" id="F"/><path fill="#121215" d="M663-916c-163-27-288 18-338 148V0H140v-1082h180l3 125c61-97 147-145 258-145 36 0 63 5 82 14v172" id="G"/><path fill="#121215" d="M497-251l268-831h189L566 0H425L33-1082h189" id="H"/><path fill="#121215" d="M341 0H156v-1082h185V0zm-91-1264c-68 0-108-42-109-105 0-62 41-107 109-107s110 44 110 107-42 105-110 105" id="I"/><path fill="#121215" d="M277-555c0 244 77 420 297 424 127 2 249-93 255-210h175C980-127 805 20 574 20 258 20 81-222 92-562c11-319 164-533 481-540 237-5 426 165 431 392H829c-7-133-115-242-256-240-209 4-296 166-296 395" id="J"/><g id="e"><use transform="matrix(0.01302083333333333,0,0,0.01302083333333333,0,0)" xlink:href="#E"/><use transform="matrix(0.01302083333333333,0,0,0.01302083333333333,13.749999999999996,0)" xlink:href="#F"/><use transform="matrix(0.01302083333333333,0,0,0.01302083333333333,27.87760416666666,0)" xlink:href="#G"/><use transform="matrix(0.01302083333333333,0,0,0.01302083333333333,37.13541666666666,0)" xlink:href="#H"/><use transform="matrix(0.01302083333333333,0,0,0.01302083333333333,50.05208333333332,0)" xlink:href="#I"/><use transform="matrix(0.01302083333333333,0,0,0.01302083333333333,56.523437499999986,0)" xlink:href="#J"/><use transform="matrix(0.01302083333333333,0,0,0.01302083333333333,70.48177083333331,0)" xlink:href="#F"/></g><path fill="#121215" d="M456 20C285 20 205-92 206-268v-671H9v-143h197v-262h185v262h202v143H391v671c-9 125 92 149 207 118V0c-49 13-96 20-142 20" id="K"/><g id="f"><use transform="matrix(0.01302083333333333,0,0,0.01302083333333333,0,0)" xlink:href="#x"/><use transform="matrix(0.01302083333333333,0,0,0.01302083333333333,17.35677083333333,0)" xlink:href="#y"/><use transform="matrix(0.01302083333333333,0,0,0.01302083333333333,23.828124999999993,0)" xlink:href="#I"/><use transform="matrix(0.01302083333333333,0,0,0.01302083333333333,30.29947916666666,0)" xlink:href="#F"/><use transform="matrix(0.01302083333333333,0,0,0.01302083333333333,44.42708333333332,0)" xlink:href="#D"/><use transform="matrix(0.01302083333333333,0,0,0.01302083333333333,59.140624999999986,0)" xlink:href="#K"/></g><path fill="#202124" d="M483-459l28 192 41-173 288-1016h162l281 1016 40 176 31-196 226-996h193L1420 0h-175L945-1061l-23-111-23 111L588 0H413L61-1456h192" id="L"/><path fill="#202124" d="M599-131c141 0 220-65 285-146l113 88C906-50 770 20 589 20 281 21 93-214 93-545c0-223 93-397 233-485 74-48 154-72 240-72 300 2 449 218 445 537v77H278c0 197 129 357 321 357zm227-509c-3-180-88-310-260-310-170 0-264 140-282 310h542" id="M"/><path fill="#202124" d="M634-1102c292 0 422 254 422 573 0 298-143 547-420 549-137 0-242-48-317-145L310 0H140v-1536h185v573c75-93 178-139 309-139zm-44 965c207 0 281-175 281-413 0-224-79-395-283-395-122 0-210 57-263 170v468c57 113 145 170 265 170" id="N"/><g id="g"><use transform="matrix(0.009765624999999995,0,0,0.009765624999999995,0,0)" xlink:href="#L"/><use transform="matrix(0.009765624999999995,0,0,0.009765624999999995,17.44140624999999,0)" xlink:href="#M"/><use transform="matrix(0.009765624999999995,0,0,0.009765624999999995,28.037109374999986,0)" xlink:href="#N"/></g><path fill="#202124" d="M663-916c-163-27-288 18-338 148V0H140v-1082h180l3 125c61-97 147-145 258-145 36 0 63 5 82 14v172" id="O"/><path fill="#202124" d="M524 20C238 18 95-240 95-550c0-307 146-552 431-552 128 0 229 43 303 129l8-109h170V416H822v-516C747-20 648 20 524 20zm48-970c-208 0-292 182-292 421 0 219 92 398 290 398 110 0 194-49 252-146v-530c-59-95-142-143-250-143" id="P"/><path fill="#202124" d="M491 20c-241-1-355-148-355-398v-704h185v699c0 164 67 246 200 246 141 0 235-53 282-158v-787h185V0H812l-4-107C736-22 630 20 491 20" id="Q"/><path fill="#202124" d="M538-131c121 0 232-49 232-156 0-50-20-88-56-117-73-60-334-92-420-143-92-55-162-110-162-238 0-190 192-317 400-317 223 0 414 129 413 338H759c0-108-110-186-227-186-119 0-215 53-215 159 0 45 18 78 53 101 76 52 331 90 416 139 98 57 169 115 169 251C955-92 760 20 538 20c-176 0-314-68-386-174-38-55-57-115-57-179h185c6 129 116 202 258 202" id="R"/><path fill="#202124" d="M456 20C285 20 205-92 206-268v-671H9v-143h197v-262h185v262h202v143H391v671c-9 125 92 149 207 118V0c-49 13-96 20-142 20" id="S"/><g id="h"><use transform="matrix(0.009765624999999995,0,0,0.009765624999999995,0,0)" xlink:href="#O"/><use transform="matrix(0.009765624999999995,0,0,0.009765624999999995,6.5820312499999964,0)" xlink:href="#M"/><use transform="matrix(0.009765624999999995,0,0,0.009765624999999995,17.177734374999993,0)" xlink:href="#P"/><use transform="matrix(0.009765624999999995,0,0,0.009765624999999995,28.544921874999986,0)" xlink:href="#Q"/><use transform="matrix(0.009765624999999995,0,0,0.009765624999999995,39.57031249999998,0)" xlink:href="#M"/><use transform="matrix(0.009765624999999995,0,0,0.009765624999999995,50.16601562499997,0)" xlink:href="#R"/><use transform="matrix(0.009765624999999995,0,0,0.009765624999999995,60.478515624999964,0)" xlink:href="#S"/><use transform="matrix(0.009765624999999995,0,0,0.009765624999999995,67.01171874999996,0)" xlink:href="#R"/></g><path fill="#202124" d="M561-1102c238-4 403 126 403 351v498c0 99 13 178 38 237V0H808c-11-21-19-59-26-114C696-25 593 20 474 20c-199 0-368-130-365-320 4-251 214-359 490-356h180v-85c-1-135-86-212-229-212-115 0-232 67-233 171H131c20-205 206-316 430-320zM294-326c0 117 90 185 207 185 122 0 239-75 278-162v-222H634c-227 0-340 66-340 199" id="T"/><path fill="#202124" d="M589-945c-131 0-219 81-264 174V0H140v-1082h175l6 136c83-104 191-156 324-156 229 0 346 129 346 387V0H806v-716c-2-153-65-229-217-229" id="U"/><path fill="#202124" d="M520 20C244 20 95-247 95-550c0-298 151-550 427-552 127 0 227 43 301 130v-564h185V0H838l-9-116C755-25 652 20 520 20zm48-965c-210 0-288 177-288 416 0 218 87 392 286 392 117 0 203-53 257-158v-497c-55-102-140-153-255-153" id="V"/><g id="i"><use transform="matrix(0.009765624999999995,0,0,0.009765624999999995,0,0)" xlink:href="#T"/><use transform="matrix(0.009765624999999995,0,0,0.009765624999999995,10.878906249999995,0)" xlink:href="#U"/><use transform="matrix(0.009765624999999995,0,0,0.009765624999999995,21.91406249999999,0)" xlink:href="#V"/></g><path fill="#202124" d="M497-251l268-831h189L566 0H425L33-1082h189" id="W"/><g id="j"><use transform="matrix(0.009765624999999995,0,0,0.009765624999999995,0,0)" xlink:href="#M"/><use transform="matrix(0.009765624999999995,0,0,0.009765624999999995,10.468749999999995,0)" xlink:href="#W"/><use transform="matrix(0.009765624999999995,0,0,0.009765624999999995,20.02929687499999,0)" xlink:href="#M"/><use transform="matrix(0.009765624999999995,0,0,0.009765624999999995,30.624999999999982,0)" xlink:href="#U"/><use transform="matrix(0.009765624999999995,0,0,0.009765624999999995,41.66015624999998,0)" xlink:href="#S"/><use transform="matrix(0.009765624999999995,0,0,0.009765624999999995,48.19335937499997,0)" xlink:href="#R"/></g><path fill="#121215" d="M561-1102c238-4 403 126 403 351v498c0 99 13 178 38 237V0H808c-11-21-19-59-26-114C696-25 593 20 474 20c-199 0-368-130-365-320 4-251 214-359 490-356h180v-85c-1-135-86-212-229-212-115 0-232 67-233 171H131c20-205 206-316 430-320zM294-326c0 117 90 185 207 185 122 0 239-75 278-162v-222H634c-227 0-340 66-340 199" id="X"/><g id="k"><use transform="matrix(0.01302083333333333,0,0,0.01302083333333333,0,0)" xlink:href="#x"/><use transform="matrix(0.01302083333333333,0,0,0.01302083333333333,17.35677083333333,0)" xlink:href="#z"/><use transform="matrix(0.01302083333333333,0,0,0.01302083333333333,32.56510416666666,0)" xlink:href="#D"/><use transform="matrix(0.01302083333333333,0,0,0.01302083333333333,47.27864583333332,0)" xlink:href="#K"/><use transform="matrix(0.01302083333333333,0,0,0.01302083333333333,55.98958333333332,0)" xlink:href="#X"/><use transform="matrix(0.01302083333333333,0,0,0.01302083333333333,70.49479166666666,0)" xlink:href="#I"/><use transform="matrix(0.01302083333333333,0,0,0.01302083333333333,76.96614583333333,0)" xlink:href="#D"/><use transform="matrix(0.01302083333333333,0,0,0.01302083333333333,91.67968749999999,0)" xlink:href="#F"/><use transform="matrix(0.01302083333333333,0,0,0.01302083333333333,105.80729166666666,0)" xlink:href="#G"/></g><g id="l"><use transform="matrix(0.01302083333333333,0,0,0.01302083333333333,0,0)" xlink:href="#I"/><use transform="matrix(0.01302083333333333,0,0,0.01302083333333333,6.471354166666665,0)" xlink:href="#D"/><use transform="matrix(0.01302083333333333,0,0,0.01302083333333333,21.18489583333333,0)" xlink:href="#E"/><use transform="matrix(0.01302083333333333,0,0,0.01302083333333333,34.93489583333333,0)" xlink:href="#K"/><use transform="matrix(0.01302083333333333,0,0,0.01302083333333333,43.64583333333333,0)" xlink:href="#X"/><use transform="matrix(0.01302083333333333,0,0,0.01302083333333333,58.15104166666666,0)" xlink:href="#D"/><use transform="matrix(0.01302083333333333,0,0,0.01302083333333333,72.86458333333331,0)" xlink:href="#J"/><use transform="matrix(0.01302083333333333,0,0,0.01302083333333333,86.82291666666664,0)" xlink:href="#F"/></g></defs></g></svg>